<svg width="28" height="22" viewBox="0 0 28 22" fill="none" xmlns="http://www.w3.org/2000/svg">
<path d="M5.07252 21.9711V20.513C5.07252 19.954 4.73948 19.5896 4.16864 19.5896C3.88327 19.5896 3.57407 19.6868 3.35999 20.0027C3.19358 19.7354 2.95577 19.5896 2.59901 19.5896C2.36109 19.5896 2.1234 19.6624 1.93304 19.9298V19.6382H1.43359V21.9711H1.93304V20.6831C1.93304 20.2701 2.14712 20.0756 2.48016 20.0756C2.81298 20.0756 2.97961 20.2943 2.97961 20.6831V21.9711H3.47906V20.6831C3.47906 20.2701 3.71675 20.0756 4.02596 20.0756C4.35899 20.0756 4.5254 20.2943 4.5254 20.6831V21.9711H5.07252ZM12.469 19.6382H11.6605V18.9335H11.161V19.6382H10.7091V20.0998H11.1609V21.1692C11.1609 21.7038 11.375 22.0197 11.9458 22.0197C12.1599 22.0197 12.3976 21.9468 12.5642 21.8496L12.4214 21.4121C12.2788 21.5093 12.1124 21.5337 11.9934 21.5337C11.7556 21.5337 11.6605 21.3879 11.6605 21.1448V20.0998H12.469V19.6382ZM16.7025 19.5895C16.4171 19.5895 16.2269 19.7354 16.1079 19.9298V19.6382H15.6085V21.9711H16.1079V20.6588C16.1079 20.2701 16.2743 20.0513 16.5835 20.0513C16.6787 20.0513 16.7976 20.0757 16.8928 20.0999L17.0354 19.6139C16.9403 19.5896 16.7976 19.5896 16.7025 19.5896V19.5895ZM10.3048 19.8326C10.0669 19.6624 9.73396 19.5896 9.3772 19.5896C8.80646 19.5896 8.42597 19.8812 8.42597 20.3429C8.42597 20.7318 8.71134 20.9504 9.21079 21.0234L9.44859 21.0477C9.71024 21.0962 9.85292 21.1692 9.85292 21.2907C9.85292 21.4607 9.66267 21.5823 9.32964 21.5823C8.99671 21.5823 8.73507 21.4607 8.56855 21.3393L8.33074 21.7281C8.59238 21.9225 8.94915 22.0197 9.3058 22.0197C9.97177 22.0197 10.3524 21.7038 10.3524 21.2664C10.3524 20.8532 10.0432 20.6345 9.56744 20.5616L9.32964 20.5373C9.11556 20.5129 8.94915 20.4644 8.94915 20.3187C8.94915 20.1485 9.11556 20.0513 9.3772 20.0513C9.66267 20.0513 9.94804 20.1728 10.0907 20.2457L10.3048 19.8326ZM23.5759 19.5896C23.2905 19.5896 23.1002 19.7354 22.9813 19.9298V19.6382H22.4818V21.9711H22.9813V20.6588C22.9813 20.2701 23.1478 20.0513 23.4569 20.0513C23.5521 20.0513 23.6711 20.0757 23.7662 20.0999L23.9089 19.6139C23.8137 19.5896 23.6711 19.5896 23.5759 19.5896ZM17.202 20.8046C17.202 21.5093 17.6776 22.0197 18.4149 22.0197C18.7479 22.0197 18.9857 21.9468 19.2235 21.7524L18.9857 21.3393C18.7954 21.4851 18.6052 21.5579 18.3911 21.5579C17.9868 21.5579 17.7014 21.2664 17.7014 20.8046C17.7014 20.3672 17.9868 20.0756 18.3911 20.0513C18.6052 20.0513 18.7954 20.1242 18.9857 20.2701L19.2235 19.8569C18.9857 19.6624 18.7479 19.5896 18.4149 19.5896C17.6776 19.5896 17.202 20.0999 17.202 20.8046ZM21.8159 20.8046V19.6382H21.3165V19.9298C21.15 19.7111 20.9122 19.5896 20.603 19.5896C19.9608 19.5896 19.4614 20.0999 19.4614 20.8046C19.4614 21.5093 19.9608 22.0197 20.603 22.0197C20.9359 22.0197 21.1738 21.8982 21.3165 21.6795V21.9711H21.8159V20.8046ZM19.9846 20.8046C19.9846 20.3915 20.2462 20.0513 20.6743 20.0513C21.0786 20.0513 21.3641 20.3672 21.3641 20.8046C21.3641 21.2178 21.0786 21.5579 20.6743 21.5579C20.2462 21.5336 19.9846 21.2178 19.9846 20.8046ZM14.015 19.5896C13.3491 19.5896 12.8733 20.0756 12.8733 20.8046C12.8733 21.5337 13.3489 22.0197 14.0387 22.0197C14.3717 22.0197 14.7047 21.9225 14.9664 21.7038L14.7284 21.3393C14.5382 21.4851 14.3004 21.5823 14.0626 21.5823C13.7534 21.5823 13.4442 21.4365 13.3728 21.0233H15.0615V20.829C15.0853 20.0756 14.6572 19.5896 14.0149 19.5896H14.015ZM14.015 20.027C14.3241 20.027 14.5383 20.2215 14.5858 20.586H13.3966C13.4442 20.2701 13.6583 20.027 14.015 20.027ZM26.4061 20.8046V18.7147H25.9066V19.9298C25.7401 19.7111 25.5023 19.5896 25.1931 19.5896C24.551 19.5896 24.0515 20.0999 24.0515 20.8046C24.0515 21.5093 24.551 22.0197 25.1931 22.0197C25.5262 22.0197 25.764 21.8982 25.9066 21.6795V21.9711H26.4061V20.8046ZM24.5748 20.8046C24.5748 20.3915 24.8364 20.0513 25.2645 20.0513C25.6688 20.0513 25.9542 20.3672 25.9542 20.8046C25.9542 21.2178 25.6688 21.5579 25.2645 21.5579C24.8364 21.5336 24.5748 21.2178 24.5748 20.8046ZM7.87886 20.8046V19.6382H7.37941V19.9298C7.21289 19.7111 6.97508 19.5896 6.66588 19.5896C6.02375 19.5896 5.5243 20.0999 5.5243 20.8046C5.5243 21.5093 6.02375 22.0197 6.66588 22.0197C6.99892 22.0197 7.23672 21.8982 7.37941 21.6795V21.9711H7.87886V20.8046ZM6.02375 20.8046C6.02375 20.3915 6.28539 20.0513 6.71344 20.0513C7.11777 20.0513 7.40324 20.3672 7.40324 20.8046C7.40324 21.2178 7.11777 21.5579 6.71344 21.5579C6.28539 21.5336 6.02375 21.2178 6.02375 20.8046Z" fill="#CACACA"/>
<path d="M10.189 1.87109H17.6807V15.6257H10.189V1.87109Z" fill="#FF5F00"/>
<path d="M10.6139 8.74851C10.6139 5.95389 11.8982 3.47509 13.8721 1.87116C12.4215 0.704716 10.5902 0 8.59239 0C3.85934 0 0.0302734 3.91247 0.0302734 8.74851C0.0302734 13.5844 3.85934 17.497 8.59228 17.497C10.5901 17.497 12.4213 16.7923 13.8721 15.6257C11.8982 14.0462 10.6139 11.5431 10.6139 8.74851Z" fill="#EB001B"/>
<path d="M27.7886 8.74851C27.7886 13.5844 23.9596 17.497 19.2266 17.497C17.2288 17.497 15.3976 16.7923 13.9468 15.6257C15.9446 14.0219 17.2051 11.5431 17.2051 8.74851C17.2051 5.95389 15.9207 3.47509 13.9468 1.87116C15.3974 0.704716 17.2288 0 19.2266 0C23.9596 0 27.7887 3.93682 27.7887 8.74851H27.7886Z" fill="#F79E1B"/>
</svg>
