<svg width="44" height="15" viewBox="0 0 44 15" fill="none" xmlns="http://www.w3.org/2000/svg">
<path d="M22.5831 5.01702C22.5587 6.98488 24.2949 8.08295 25.6027 8.73589C26.9464 9.40574 27.3978 9.83533 27.3924 10.4344C27.3824 11.3512 26.3206 11.7559 25.327 11.7716C23.5935 11.7991 22.5856 11.2921 21.7843 10.9086L21.1598 13.9023C21.9638 14.2818 23.4524 14.6128 24.9961 14.6273C28.6197 14.6273 30.9903 12.7948 31.0032 9.95358C31.0174 6.34767 26.1348 6.14808 26.1681 4.53634C26.1797 4.04762 26.6348 3.52609 27.6323 3.39349C28.126 3.32651 29.4889 3.27524 31.034 4.00422L31.6405 1.1078C30.8095 0.797823 29.7416 0.501004 28.4119 0.501004C25.0013 0.501004 22.6024 2.35847 22.5831 5.01702ZM37.468 0.750488C36.8063 0.750488 36.2487 1.1459 35.9998 1.7527L30.8237 14.4146H34.4446L35.1652 12.3744H39.5899L40.0079 14.4146H43.1994L40.4144 0.750488H37.468ZM37.9745 4.44167L39.0195 9.57269H36.1576L37.9745 4.44167ZM18.1929 0.750659L15.3387 14.4144H18.7892L21.642 0.750318H18.1929V0.750659ZM13.0885 0.750318L9.49705 10.0508L8.04427 2.14299C7.87381 1.26022 7.20063 0.750488 6.45306 0.750488H0.58223L0.5 1.14727C1.70526 1.41521 3.07464 1.84737 3.90427 2.30977C4.41199 2.59223 4.55677 2.83916 4.72357 3.51037L7.47517 14.4146H11.1215L16.7117 0.750488H13.0885" fill="url(#paint0_linear_124_3062)"/>
<defs>
<linearGradient id="paint0_linear_124_3062" x1="20.1306" y1="14.9107" x2="20.5495" y2="0.403331" gradientUnits="userSpaceOnUse">
<stop stop-color="#222357"/>
<stop offset="1" stop-color="#254AA5"/>
</linearGradient>
</defs>
</svg>
